<?xml version="1.0" encoding="UTF-8" standalone="no"?>
<svg
   xmlns:dc="http://purl.org/dc/elements/1.1/"
   xmlns:cc="http://creativecommons.org/ns#"
   xmlns:rdf="http://www.w3.org/1999/02/22-rdf-syntax-ns#"
   xmlns:svg="http://www.w3.org/2000/svg"
   xmlns="http://www.w3.org/2000/svg"
   xmlns:sodipodi="http://sodipodi.sourceforge.net/DTD/sodipodi-0.dtd"
   xmlns:inkscape="http://www.inkscape.org/namespaces/inkscape"
   preserveAspectRatio="xMidYMid meet"
   class="dicon   "
   style="width: 138px; height: 26px;"
   viewBox="0 0 138 26"
   version="1.1"
   id="svg12"
   sodipodi:docname="dockerhub.svg"
   inkscape:version="1.0.1 (3bc2e813f5, 2020-09-07)">
  <metadata
     id="metadata18">
    <rdf:RDF>
      <cc:Work
         rdf:about="">
        <dc:format>image/svg+xml</dc:format>
        <dc:type
           rdf:resource="http://purl.org/dc/dcmitype/StillImage" />
      </cc:Work>
    </rdf:RDF>
  </metadata>
  <defs
     id="defs16" />
  <sodipodi:namedview
     pagecolor="#ffffff"
     bordercolor="#666666"
     borderopacity="1"
     objecttolerance="10"
     gridtolerance="10"
     guidetolerance="10"
     inkscape:pageopacity="0"
     inkscape:pageshadow="2"
     inkscape:window-width="1920"
     inkscape:window-height="1014"
     id="namedview14"
     showgrid="false"
     inkscape:zoom="9.1304348"
     inkscape:cx="106.76855"
     inkscape:cy="21.675449"
     inkscape:window-x="0"
     inkscape:window-y="0"
     inkscape:window-maximized="1"
     inkscape:current-layer="hub"
     inkscape:document-rotation="0" />
  <g
     id="g10">
    <g
       fill="#FFF"
       fill-rule="evenodd"
       id="g8">
      <path
         d="M63.12 14.601c.292-.29.633-.519 1.023-.687.389-.168.806-.252 1.25-.252.402 0 .773.067 1.114.202.341.134.667.333.977.595.183.147.39.22.62.22.275 0 .501-.091.68-.275a.943.943 0 0 0 .27-.687.932.932 0 0 0-.329-.724c-.937-.83-2.048-1.245-3.332-1.245-1.412 0-2.617.5-3.615 1.502-.998 1.002-1.497 2.211-1.497 3.628 0 1.417.499 2.626 1.497 3.628.998 1.001 2.203 1.502 3.615 1.502 1.278 0 2.39-.415 3.332-1.245a.968.968 0 0 0 .302-.706.92.92 0 0 0-.95-.953 1.021 1.021 0 0 0-.602.202c-.305.263-.627.46-.968.591-.34.131-.712.197-1.114.197-.444 0-.861-.084-1.25-.252a3.199 3.199 0 0 1-1.963-2.964 3.194 3.194 0 0 1 .94-2.277zm15.771-2.267a1.055 1.055 0 0 0-.205-.307.893.893 0 0 0-.301-.206.951.951 0 0 0-.374-.073.926.926 0 0 0-.512.146l-5.46 3.564V8.312a.93.93 0 0 0-.278-.683.913.913 0 0 0-.67-.279.924.924 0 0 0-.68.28.929.929 0 0 0-.28.682v12.735c0 .262.093.488.28.678.185.189.412.283.68.283a.906.906 0 0 0 .67-.283.935.935 0 0 0 .279-.678v-3.308l1.114-.733 4.218 4.755a.88.88 0 0 0 .639.247.951.951 0 0 0 .374-.073.902.902 0 0 0 .301-.206c.085-.088.154-.19.205-.307a.885.885 0 0 0 .078-.367.97.97 0 0 0-.265-.668l-3.925-4.434 3.825-2.492c.244-.165.365-.418.365-.76a.887.887 0 0 0-.078-.367zm-21.838 5.785a3.255 3.255 0 0 1-1.702 1.718 3.08 3.08 0 0 1-1.251.257c-.45 0-.87-.086-1.26-.257a3.225 3.225 0 0 1-1.013-.691 3.284 3.284 0 0 1-.68-1.022 3.128 3.128 0 0 1-.252-1.246c0-.44.084-.855.251-1.246.168-.39.395-.731.68-1.022.286-.29.624-.52 1.014-.691.39-.171.81-.257 1.26-.257.444 0 .86.086 1.25.257a3.257 3.257 0 0 1 1.703 1.717c.168.388.251.802.251 1.242 0 .44-.083.854-.251 1.241zm.662-4.869c-1.01-1.002-2.215-1.502-3.615-1.502-1.412 0-2.617.5-3.615 1.502-.998 1.002-1.498 2.211-1.498 3.628 0 1.417.5 2.626 1.498 3.628.998 1.001 2.203 1.502 3.615 1.502 1.4 0 2.605-.5 3.615-1.502.998-.99 1.497-2.199 1.497-3.628a5.3 5.3 0 0 0-.379-1.97 5.031 5.031 0 0 0-1.118-1.658zm41.03-.861a1.797 1.797 0 0 0-.644-.39 3.775 3.775 0 0 0-.85-.197 7.268 7.268 0 0 0-.862-.054 4.97 4.97 0 0 0-1.716.293 5.234 5.234 0 0 0-1.489.842V12.7a.92.92 0 0 0-.278-.673.913.913 0 0 0-.671-.28.923.923 0 0 0-.68.28.92.92 0 0 0-.279.673v8.355a.92.92 0 0 0 .279.674c.185.186.412.28.68.28a.914.914 0 0 0 .671-.28.92.92 0 0 0 .278-.674v-4.177a3.232 3.232 0 0 1 .936-2.277c.29-.29.629-.519 1.018-.687.39-.168.807-.252 1.25-.252.451 0 .868.077 1.252.23.152.067.286.1.401.1a.95.95 0 0 0 .375-.073.89.89 0 0 0 .3-.207c.086-.088.154-.19.206-.306A.913.913 0 0 0 99 13.03a.853.853 0 0 0-.256-.641zm-16.708 3.536c.097-.336.247-.643.448-.92.2-.278.438-.516.711-.715.274-.199.576-.353.904-.463a3.175 3.175 0 0 1 2.023 0 3.279 3.279 0 0 1 1.606 1.177c.204.278.358.585.461.921h-6.153zm6.692-2.675c-1.01-1.002-2.216-1.502-3.615-1.502-1.412 0-2.618.5-3.616 1.502-.998 1.002-1.497 2.211-1.497 3.628 0 1.417.5 2.626 1.497 3.628.998 1.001 2.204 1.502 3.616 1.502 1.284 0 2.398-.415 3.341-1.245a.954.954 0 0 0 .274-.688.927.927 0 0 0-.27-.682.918.918 0 0 0-.68-.27.995.995 0 0 0-.63.238 3.011 3.011 0 0 1-.93.55 3.202 3.202 0 0 1-1.105.183c-.353 0-.693-.055-1.018-.165a3.28 3.28 0 0 1-.895-.463 3.197 3.197 0 0 1-1.164-1.635h7.23a.94.94 0 0 0 .959-.953c0-.708-.125-1.367-.374-1.974a4.991 4.991 0 0 0-1.123-1.654zm-42.988 4.87a3.245 3.245 0 0 1-1.703 1.718c-.389.17-.806.256-1.25.256-.45 0-.87-.086-1.26-.257a3.227 3.227 0 0 1-1.013-.691 3.272 3.272 0 0 1-.68-1.022 3.134 3.134 0 0 1-.251-1.246c0-.44.083-.855.25-1.246.168-.39.395-.731.68-1.022.287-.29.624-.52 1.014-.691.39-.171.81-.257 1.26-.257.444 0 .861.086 1.25.257a3.246 3.246 0 0 1 1.703 1.717c.168.388.251.802.251 1.242a3.1 3.1 0 0 1-.25 1.241zm1.2-10.77a.922.922 0 0 0-.949.953v4.571c-.925-.751-1.993-1.126-3.204-1.126-1.412 0-2.617.5-3.615 1.502-.999 1.002-1.497 2.211-1.497 3.628 0 1.417.498 2.626 1.497 3.628.998 1.001 2.203 1.502 3.615 1.502 1.4 0 2.605-.5 3.615-1.502.999-.99 1.498-2.199 1.498-3.628V8.303a.94.94 0 0 0-.959-.953zm-26.46 4.136h3.74V8.108h-3.74v3.378zm-4.419 0h3.74V8.108h-3.74v3.378zm-4.418 0h3.739V8.108h-3.74v3.378zm-4.42 0h3.74V8.108h-3.74v3.378zm-4.418 0h3.739V8.108H2.806v3.378zm4.419-4.054h3.739V4.054h-3.74v3.378zm4.419 0h3.739V4.054h-3.74v3.378zm4.418 0h3.74V4.054h-3.74v3.378zm0-4.054h3.74V0h-3.74v3.378zM31.32 9.046c-.186-1.352-.944-2.524-2.323-3.584l-.792-.525-.53.789C27 6.74 26.66 8.146 26.772 9.495c.05.474.207 1.323.698 2.069-.49.262-1.456.623-2.739.598H.14l-.049.282c-.23 1.355-.226 5.583 2.537 8.833C4.727 23.747 7.875 25 11.984 25c8.906 0 15.495-4.075 18.58-11.482 1.213.024 3.827.007 5.17-2.541.034-.058.115-.212.349-.695l.129-.264-.755-.501c-.817-.543-2.693-.742-4.137-.471z"
         id="path2"
         style="fill:#099cec;fill-opacity:1" />
      <g
         id="Page-1"
         stroke="none"
         stroke-width="1"
         fill="none"
         fill-rule="evenodd"
         opacity="0.5"
         font-family="Comfortaa"
         font-size="18"
         font-weight="bold"
         style="fill:#099cec;fill-opacity:1">
        <g
           aria-label="hub"
           id="hub"
           style="fill:#099cec;fill-opacity:1">
          <path
             d="m 107.516,12.064 q 1.242,0 2.232,0.54 0.99,0.54 1.548,1.584 0.558,1.026 0.558,2.484 V 21.1 q 0,0.396 -0.27,0.666 -0.252,0.252 -0.648,0.252 -0.396,0 -0.666,-0.252 -0.252,-0.27 -0.252,-0.666 v -4.428 q 0,-1.458 -0.792,-2.196 -0.774,-0.756 -2.07,-0.756 -0.756,0 -1.386,0.306 -0.612,0.306 -0.972,0.828 -0.342,0.522 -0.342,1.17 V 21.1 q 0,0.396 -0.252,0.666 -0.252,0.252 -0.666,0.252 -0.396,0 -0.666,-0.252 -0.252,-0.27 -0.252,-0.666 V 8.86 q 0,-0.414 0.252,-0.666 0.27,-0.252 0.666,-0.252 0.414,0 0.666,0.252 0.252,0.252 0.252,0.666 v 4.41 q 0.576,-0.576 1.368,-0.882 0.792,-0.324 1.692,-0.324 z"
             style="fill:#099cec;fill-opacity:1"
             id="path835" />
          <path
             d="m 123.03198,12.136 q 0.414,0 0.666,0.252 0.252,0.252 0.252,0.666 v 8.028 q 0,0.396 -0.252,0.666 -0.252,0.252 -0.666,0.252 -0.396,0 -0.666,-0.252 -0.252,-0.27 -0.252,-0.666 v -0.198 q -0.576,0.576 -1.368,0.9 -0.792,0.306 -1.692,0.306 -1.242,0 -2.232,-0.54 -0.99,-0.54 -1.548,-1.566 -0.558,-1.044 -0.558,-2.502 v -4.428 q 0,-0.396 0.252,-0.648 0.27,-0.27 0.666,-0.27 0.396,0 0.648,0.27 0.27,0.252 0.27,0.648 v 4.428 q 0,1.458 0.774,2.214 0.792,0.738 2.088,0.738 0.756,0 1.368,-0.306 0.63,-0.306 0.972,-0.828 0.36,-0.522 0.36,-1.17 v -5.076 q 0,-0.414 0.252,-0.666 0.27,-0.252 0.666,-0.252 z"
             style="fill:#099cec;fill-opacity:1"
             id="path837" />
          <path
             d="m 132.49996,12.082 q 1.296,0 2.34,0.648 1.062,0.648 1.656,1.8 0.612,1.134 0.612,2.538 0,1.404 -0.648,2.556 -0.648,1.134 -1.8,1.8 -1.134,0.648 -2.52,0.648 -1.386,0 -2.52,-0.648 -1.116,-0.666 -1.782,-1.8 -0.648,-1.152 -0.648,-2.556 V 8.86 q 0,-0.414 0.252,-0.666 0.27,-0.252 0.666,-0.252 0.414,0 0.666,0.252 0.252,0.252 0.252,0.666 v 4.86 q 0.63,-0.774 1.53,-1.206 0.9,-0.432 1.944,-0.432 z m -0.36,8.37 q 0.9,0 1.62,-0.432 0.738,-0.45 1.152,-1.224 0.432,-0.774 0.432,-1.728 0,-0.954 -0.432,-1.71 -0.414,-0.774 -1.152,-1.206 -0.72,-0.45 -1.62,-0.45 -0.9,0 -1.638,0.45 -0.72,0.432 -1.134,1.206 -0.414,0.756 -0.414,1.71 0,0.954 0.414,1.728 0.414,0.774 1.134,1.224 0.738,0.432 1.638,0.432 z"
             style="fill:#099cec;fill-opacity:1"
             id="path839" />
        </g>
      </g>
    </g>
  </g>
</svg>
